<svg xmlns="http://www.w3.org/2000/svg" width="1200" height="900" viewBox="0 0 1200 900" role="img" aria-label="Animal care">
  <defs>
    <linearGradient id="g" x1="0" y1="0" x2="1" y2="1">
      <stop offset="0" stop-color="#7E9B84" />
      <stop offset="1" stop-color="#5F7C66" />
    </linearGradient>
    <radialGradient id="glow" cx="0.7" cy="0.25" r="0.9">
      <stop offset="0" stop-color="#ffffff" stop-opacity="0.16" />
      <stop offset="1" stop-color="#ffffff" stop-opacity="0" />
    </radialGradient>
  </defs>
  <rect width="1200" height="900" fill="url(#g)" />
  <rect width="1200" height="900" fill="url(#glow)" />
  <g transform="translate(864, 288)">
    <g stroke="#F7F2E9" stroke-opacity="0.22" fill="none" stroke-width="2">
      <circle cx="0" cy="0" r="128" />
      <circle cx="0" cy="0" r="96" stroke-dasharray="4 8" />
      <path d="M0,-120 L22,-22 L120,0 L22,22 L0,120 L-22,22 L-120,0 L-22,-22 Z"
        fill="#F7F2E9" fill-opacity="0.132" stroke="none" />
      <path d="M0,-150 L0,150 M-150,0 L150,0" stroke-opacity="0.154" />
    </g></g>
  <g transform="translate(240, 702)">
    <g stroke="#F7F2E9" stroke-opacity="0.12" fill="none" stroke-width="2">
      <circle cx="0" cy="0" r="128" />
      <circle cx="0" cy="0" r="96" stroke-dasharray="4 8" />
      <path d="M0,-120 L22,-22 L120,0 L22,22 L0,120 L-22,22 L-120,0 L-22,-22 Z"
        fill="#F7F2E9" fill-opacity="0.072" stroke="none" />
      <path d="M0,-150 L0,150 M-150,0 L150,0" stroke-opacity="0.08399999999999999" />
    </g></g>
  <text x="600" y="450" text-anchor="middle" dominant-baseline="middle"
    font-family="Georgia, 'Times New Roman', serif" font-size="54"
    fill="#F7F2E9" fill-opacity="0.9" font-style="italic">Animal care</text>
  <text x="600" y="513" text-anchor="middle"
    font-family="system-ui, sans-serif" font-size="25"
    fill="#ffffff" fill-opacity="0.7" letter-spacing="2">PLACEHOLDER · REPLACE WITH PHOTO</text>
</svg>