<svg xmlns="http://www.w3.org/2000/svg" width="1000" height="1000" viewBox="0 0 1000 1000" role="img" aria-label="Gallery 8">
  <defs>
    <linearGradient id="g" x1="0" y1="0" x2="1" y2="1">
      <stop offset="0" stop-color="#A6BCA9" />
      <stop offset="1" stop-color="#7E9B84" />
    </linearGradient>
    <radialGradient id="glow" cx="0.7" cy="0.25" r="0.9">
      <stop offset="0" stop-color="#ffffff" stop-opacity="0.16" />
      <stop offset="1" stop-color="#ffffff" stop-opacity="0" />
    </radialGradient>
  </defs>
  <rect width="1000" height="1000" fill="url(#g)" />
  <rect width="1000" height="1000" fill="url(#glow)" />
  <g transform="translate(720, 320)">
    <g stroke="#2E4636" stroke-opacity="0.22" fill="none" stroke-width="2">
      <circle cx="0" cy="0" r="128" />
      <circle cx="0" cy="0" r="96" stroke-dasharray="4 8" />
      <path d="M0,-120 L22,-22 L120,0 L22,22 L0,120 L-22,22 L-120,0 L-22,-22 Z"
        fill="#2E4636" fill-opacity="0.132" stroke="none" />
      <path d="M0,-150 L0,150 M-150,0 L150,0" stroke-opacity="0.154" />
    </g></g>
  <g transform="translate(200, 780)">
    <g stroke="#2E4636" stroke-opacity="0.12" fill="none" stroke-width="2">
      <circle cx="0" cy="0" r="128" />
      <circle cx="0" cy="0" r="96" stroke-dasharray="4 8" />
      <path d="M0,-120 L22,-22 L120,0 L22,22 L0,120 L-22,22 L-120,0 L-22,-22 Z"
        fill="#2E4636" fill-opacity="0.072" stroke="none" />
      <path d="M0,-150 L0,150 M-150,0 L150,0" stroke-opacity="0.08399999999999999" />
    </g></g>
  <text x="500" y="500" text-anchor="middle" dominant-baseline="middle"
    font-family="Georgia, 'Times New Roman', serif" font-size="60"
    fill="#2E4636" fill-opacity="0.9" font-style="italic">Gallery 8</text>
  <text x="500" y="570" text-anchor="middle"
    font-family="system-ui, sans-serif" font-size="28"
    fill="#ffffff" fill-opacity="0.7" letter-spacing="2">PLACEHOLDER · REPLACE WITH PHOTO</text>
</svg>